<svg xmlns="http://www.w3.org/2000/svg" xmlns:xlink="http://www.w3.org/1999/xlink" viewBox="0 0 160 26" width="168" height="21" xmlns:v="https://vecta.io/nano"><title>Pancakeswap</title><path d="M30.852 19.757c-.372 0-.635-.077-.789-.231-.141-.154-.212-.398-.212-.731V7.651c0-.334.077-.577.231-.731.154-.167.411-.25.77-.25h4.716c1.796 0 3.118.379 3.965 1.136s1.27 1.886 1.27 3.387c0 1.488-.423 2.611-1.27 3.368-.834.744-2.156 1.116-3.965 1.116H33.74v3.118c0 .334-.077.577-.231.731s-.417.231-.789.231h-1.867zm4.408-6.871c.526 0 .93-.141 1.213-.423.295-.282.443-.706.443-1.27 0-.577-.148-1.007-.443-1.29-.282-.282-.686-.423-1.213-.423h-1.52v3.407h1.52zm10.088 7.16c-1.206 0-2.175-.385-2.906-1.155-.719-.783-1.078-1.88-1.078-3.291 0-1.078.244-2.021.731-2.829.5-.808 1.2-1.431 2.098-1.867.911-.449 1.957-.674 3.137-.674.975 0 1.835.109 2.579.327.757.205 1.45.507 2.079.905v7.699c0 .244-.045.404-.135.481s-.269.116-.539.116h-1.963c-.141 0-.25-.019-.327-.058a.58.58 0 0 1-.192-.231l-.25-.577c-.372.398-.821.687-1.347.866-.513.192-1.142.289-1.886.289zm1.444-2.618c.5 0 .892-.122 1.174-.366s.423-.59.423-1.039v-3.002c-.244-.116-.552-.173-.924-.173-.68 0-1.225.237-1.636.712-.398.475-.597 1.142-.597 2.002 0 1.245.52 1.867 1.559 1.867zm7.875 2.329c-.372 0-.635-.077-.789-.231s-.231-.398-.231-.731v-7.679c0-.231.038-.385.115-.462.09-.09.269-.135.539-.135h1.982c.154 0 .269.026.346.077.09.039.141.116.154.231l.096.577c.359-.359.828-.642 1.405-.847.59-.218 1.245-.327 1.963-.327 1.039 0 1.88.295 2.521.885.642.577.962 1.437.962 2.579v5.1c0 .334-.077.577-.231.731-.141.154-.398.231-.77.231h-1.867c-.372 0-.642-.077-.808-.231-.154-.154-.231-.398-.231-.731v-4.85c0-.385-.083-.661-.25-.828s-.43-.25-.789-.25c-.385 0-.693.103-.924.308-.218.205-.327.488-.327.847v4.773c0 .334-.077.577-.231.731-.141.154-.398.231-.77.231h-1.867zm15.868.289c-1.796 0-3.182-.417-4.157-1.251s-1.463-2.047-1.463-3.638c0-.975.225-1.835.674-2.579s1.097-1.322 1.944-1.732c.86-.411 1.873-.616 3.041-.616.885 0 1.63.083 2.233.25.616.167 1.161.423 1.636.77.141.09.212.205.212.346 0 .103-.051.237-.154.404l-.789 1.367c-.09.18-.199.269-.327.269-.077 0-.199-.051-.366-.154a4.59 4.59 0 0 0-.982-.481c-.295-.103-.667-.154-1.116-.154-.642 0-1.161.205-1.559.616-.385.411-.577.975-.577 1.694 0 .731.199 1.296.597 1.694.398.385.943.577 1.636.577.411 0 .783-.058 1.116-.173s.674-.276 1.02-.481c.18-.103.308-.154.385-.154.116 0 .218.09.308.269l.866 1.482c.064.128.096.231.096.308 0 .116-.077.225-.231.327a6.08 6.08 0 0 1-1.771.77c-.629.18-1.386.27-2.271.27zm9.153 0c-1.206 0-2.175-.385-2.906-1.155-.719-.783-1.078-1.88-1.078-3.291 0-1.078.244-2.021.731-2.829.5-.808 1.2-1.431 2.098-1.867.911-.449 1.957-.674 3.137-.674.975 0 1.835.109 2.579.327.757.205 1.45.507 2.079.905v7.699c0 .244-.045.404-.135.481s-.269.116-.539.116h-1.963c-.141 0-.25-.019-.327-.058-.077-.051-.141-.128-.192-.231l-.25-.577c-.372.398-.821.687-1.347.866-.513.192-1.142.289-1.886.289zm1.444-2.618c.5 0 .892-.122 1.174-.366s.423-.59.423-1.039v-3.002c-.244-.116-.552-.173-.924-.173-.68 0-1.225.237-1.636.712-.398.475-.597 1.142-.597 2.002 0 1.245.52 1.867 1.559 1.867zm17.286 1.598a.51.51 0 0 1 .135.346c0 .115-.038.212-.115.289-.077.064-.18.096-.308.096h-2.983c-.18 0-.314-.013-.404-.039-.077-.038-.16-.109-.25-.212l-2.618-3.561v2.849c0 .334-.077.577-.231.731s-.417.231-.789.231h-1.867c-.372 0-.635-.077-.789-.231-.141-.154-.212-.398-.212-.731V7.651c0-.334.077-.577.231-.731.154-.167.411-.25.77-.25h1.867c.372 0 .635.083.789.25.154.154.231.398.231.731v6.448l2.541-3.31c.077-.103.16-.173.25-.212s.224-.058.404-.058h2.983c.128 0 .225.039.289.116.077.064.116.154.116.269a.51.51 0 0 1-.135.346l-3.291 3.772 3.387 4.003zm6.25 1.02c-1.078 0-2.04-.18-2.887-.539-.834-.359-1.495-.898-1.983-1.617s-.731-1.598-.731-2.637c0-1.63.462-2.874 1.386-3.734s2.252-1.29 3.984-1.29c1.694 0 2.977.424 3.849 1.27.886.834 1.328 1.995 1.328 3.484 0 .641-.282.962-.847.962h-6.043c0 .552.205.975.616 1.27.423.295 1.058.443 1.905.443.526 0 .963-.045 1.309-.135a5.45 5.45 0 0 0 1.078-.443c.154-.064.257-.096.308-.096.115 0 .212.077.289.231l.654 1.232a.74.74 0 0 1 .096.289c0 .116-.077.225-.231.327-.526.346-1.122.597-1.79.751s-1.43.231-2.29.231zm1.482-6.005c0-.488-.141-.866-.424-1.136s-.705-.404-1.27-.404-.994.141-1.289.423c-.295.269-.443.641-.443 1.116h3.426zm10.061 6.005a13.81 13.81 0 0 1-3.06-.327c-.962-.231-1.739-.552-2.329-.962-.218-.141-.327-.289-.327-.443 0-.103.038-.212.115-.327l.943-1.501c.103-.154.206-.231.308-.231.065 0 .174.045.328.135.474.27 1.013.488 1.616.654s1.2.25 1.79.25c.603 0 1.046-.09 1.328-.269.295-.18.443-.468.443-.866 0-.385-.16-.686-.481-.905-.308-.218-.892-.494-1.752-.828-1.296-.488-2.309-1.033-3.041-1.636-.718-.616-1.077-1.45-1.077-2.502 0-1.27.455-2.239 1.366-2.906s2.124-1.001 3.638-1.001c1.052 0 1.95.096 2.694.289.757.18 1.399.462 1.925.847.218.167.327.321.327.462 0 .09-.038.192-.115.308l-.943 1.501c-.116.154-.219.231-.308.231-.065 0-.174-.045-.328-.135-.744-.488-1.629-.731-2.656-.731-.551 0-.975.09-1.27.269s-.443.475-.443.885c0 .282.077.513.231.693a2.2 2.2 0 0 0 .616.481 16.5 16.5 0 0 0 1.232.5l.366.135c.949.372 1.693.731 2.232 1.078.552.334.969.751 1.251 1.251.283.488.424 1.103.424 1.848 0 1.142-.43 2.053-1.29 2.733-.847.68-2.098 1.02-3.753 1.02zm9.132-.289c-.192 0-.34-.032-.443-.096s-.179-.192-.23-.385l-2.483-8.315c-.026-.077-.039-.135-.039-.173 0-.18.129-.27.385-.27h2.541c.167 0 .288.032.365.096.077.051.129.141.154.269l1.04 4.369 1.308-3.522c.065-.154.129-.257.193-.308.077-.064.205-.096.385-.096h1.212c.18 0 .302.032.366.096.077.051.148.154.212.308l1.289 3.522 1.059-4.369c.038-.128.09-.218.154-.269.064-.064.18-.096.346-.096h2.56c.257 0 .385.09.385.27a.63.63 0 0 1-.038.173l-2.502 8.315c-.052.192-.129.321-.231.385-.09.064-.231.096-.424.096h-1.886c-.18 0-.314-.032-.404-.096-.09-.077-.167-.205-.231-.385l-1.27-3.484-1.271 3.484c-.051.18-.128.308-.231.385-.09.064-.224.096-.404.096h-1.867zm15.638.289c-1.206 0-2.175-.385-2.906-1.155-.719-.783-1.078-1.88-1.078-3.291 0-1.078.244-2.021.731-2.829.501-.808 1.2-1.431 2.098-1.867.911-.449 1.957-.674 3.137-.674.975 0 1.835.109 2.579.327.757.205 1.45.507 2.079.905v7.699c0 .244-.045.404-.135.481s-.269.116-.539.116h-1.963c-.141 0-.25-.019-.327-.058a.58.58 0 0 1-.192-.231l-.251-.577c-.372.398-.821.687-1.347.866-.513.192-1.142.289-1.886.289zm1.443-2.618c.501 0 .892-.122 1.174-.366s.424-.59.424-1.039v-3.002c-.244-.116-.552-.173-.924-.173-.68 0-1.225.237-1.636.712-.398.475-.597 1.142-.597 2.002 0 1.245.52 1.867 1.559 1.867zm7.856 6.217c-.372 0-.635-.077-.789-.231-.141-.154-.212-.398-.212-.731V11.654c.578-.411 1.303-.751 2.175-1.02s1.784-.404 2.733-.404c3.875 0 5.813 1.642 5.813 4.927 0 1.488-.411 2.675-1.232 3.561s-1.982 1.328-3.484 1.328a4.9 4.9 0 0 1-1.231-.154c-.385-.103-.706-.244-.963-.423v3.214c0 .334-.077.577-.231.731s-.417.231-.789.231h-1.79zm4.177-6.197c.552 0 .962-.205 1.232-.616.282-.423.423-.988.423-1.694 0-.834-.167-1.418-.5-1.751-.321-.346-.822-.52-1.502-.52-.436 0-.782.058-1.039.173v3.06c0 .436.122.77.366 1.001s.584.346 1.02.346z" fill="#fff"></path><path fill-rule="evenodd" d="M4.39 4.5A3.27 3.27 0 0 1 7.6.635c1.804 0 3.266 1.462 3.266 3.266v4.026l1.374-.048 1.321.044V3.901c0-1.804 1.462-3.266 3.266-3.266a3.27 3.27 0 0 1 3.21 3.866l-.884 4.733c3.033 1.324 5.327 3.624 5.327 6.515v1.749c0 2.377-1.572 4.367-3.771 5.71-2.215 1.354-5.212 2.159-8.47 2.159s-6.254-.805-8.47-2.159C1.572 21.863 0 19.873 0 17.497v-1.749c0-2.875 2.27-5.166 5.278-6.493L4.39 4.5zm13.631 5.355l1.034-5.538a2.27 2.27 0 0 0-2.228-2.683c-1.252 0-2.267 1.015-2.267 2.267v5.124l-.999-.1-1.321-.047-1.374.051-.999.103V3.901c0-1.252-1.015-2.267-2.267-2.267a2.27 2.27 0 0 0-2.228 2.683L6.41 9.873C3.166 11.078.999 13.259.999 15.748v1.749c0 3.794 5.033 6.87 11.241 6.87s11.241-3.076 11.241-6.87v-1.749c0-2.502-2.189-4.692-5.46-5.893z" fill="#633001"></path><path d="M23.482 17.497c0 3.794-5.033 6.87-11.241 6.87S.999 21.291.999 17.497v-1.749h22.482v1.749z" fill="#fedc90"></path><path fill-rule="evenodd" d="M5.372 4.317A2.27 2.27 0 0 1 7.6 1.634c1.252 0 2.267 1.015 2.267 2.267v5.131a18.24 18.24 0 0 1 2.373-.153c.795 0 1.571.05 2.32.146V3.901c0-1.252 1.015-2.267 2.267-2.267a2.27 2.27 0 0 1 2.228 2.683l-1.034 5.538c3.271 1.201 5.461 3.391 5.461 5.893 0 3.794-5.033 6.87-11.241 6.87S.999 19.542.999 15.748c0-2.489 2.167-4.67 5.411-5.875L5.372 4.317z" fill="#d1884f"></path><use xlink:href="#B"></use><use xlink:href="#B" x="8.618"></use><defs><path class="ey" id="B" d="M9.118 15.249c0 1.035-.559 1.874-1.249 1.874s-1.249-.839-1.249-1.874.559-1.873 1.249-1.873 1.249.839 1.249 1.874z"></path></defs></svg>